<svg id="eCu40kAvJTd1" xmlns="http://www.w3.org/2000/svg" xmlns:xlink="http://www.w3.org/1999/xlink" viewBox="0 0 300 300" shape-rendering="geometricPrecision" text-rendering="geometricPrecision" project-id="385e2796dc7f43399d6c97f1e433d1a6" export-id="ac1c8885b0b94f2390d2d14e7d44f004" cached="false"><g transform="matrix(15 0 0 15 -90 -30)"><path d="M16,4c-4.4183,0-8,3.58172-8,8s3.5817,8,8,8v-3c-2.7614,0-5-2.2386-5-5s2.2386-5,5-5v-3Z" fill="#f33535" stroke="#000" stroke-width="0.00024"/></g><g transform="matrix(-15 0 0 -15 390 330)"><path d="M16,4c-4.4183,0-8,3.58172-8,8s3.5817,8,8,8v-3c-2.7614,0-5-2.2386-5-5s2.2386-5,5-5v-3Z" fill="#35f34b" stroke="#000" stroke-width="0.00024"/></g><g transform="matrix(0.2 0 0 0.2 98.8001 98.8)"><g><path d="M318.213,66.588h107.818L465.37,0L85.969,0L46.63,66.588h145.727c32.137,9.476,58.259,28.504,72.702,52.656h-179.09l-39.34,66.588h227.316c-13.482,45.473-65.618,79.365-127.924,79.365h-77.708v60.013L288.818,512h96.012v-23.222L183.333,321.936c84.557-3.351,153.634-61.218,166.283-136.105h76.415l39.339-66.588h-119.683c-5.625-19.215-15.05-36.987-27.474-52.655Z" fill="#fff700"/></g></g></svg>
